<?xml version="1.0" encoding="utf-8"?>
<!-- Generator: Adobe Illustrator 18.0.0, SVG Export Plug-In . SVG Version: 6.00 Build 0)  -->
<!DOCTYPE svg PUBLIC "-//W3C//DTD SVG 1.1//EN" "http://www.w3.org/Graphics/SVG/1.1/DTD/svg11.dtd">
<svg version="1.1" xmlns="http://www.w3.org/2000/svg" xmlns:xlink="http://www.w3.org/1999/xlink" x="0px" y="0px"
	 viewBox="0 0 2272 1872" enable-background="new 0 0 2272 1872" xml:space="preserve">
<g id="Background">
	<rect x="-33.6" y="-7.2" fill="#355D6F" width="2322.2" height="1901.2"/>
</g>
<g id="Object">
	<g>
		<path fill="#FFFBCC" d="M1376.2,343.7c-26.7,0-48.4,36.3-48.4,81.1s21.7,81.1,48.4,81.1s48.4-36.3,48.4-81.1
			S1402.9,343.7,1376.2,343.7z M1376.2,490.5c-20.8,0-37.6-29.4-37.6-65.6s16.9-65.6,37.6-65.6s37.6,29.4,37.6,65.6
			S1397,490.5,1376.2,490.5z"/>
		<path fill="#FFFBCC" d="M1376.2,253h-299.5c-56.6,0-102.4,76.9-102.4,171.8s45.9,171.8,102.4,171.8h299.5
			c56.6,0,102.4-76.9,102.4-171.8S1432.8,253,1376.2,253z M1376.2,581.6c-47.3,0-85.6-70.2-85.6-156.8S1329,268,1376.2,268
			s85.6,70.2,85.6,156.8S1423.5,581.6,1376.2,581.6z"/>
		<path fill="#FFFBCC" d="M1376.2,253h-299.5c-56.6,0-102.4,76.9-102.4,171.8v369.9c0,0,47.6,21.5,104.8,0
			c57.3-21.5,82.3-3.6,121.7,4.8c39.4,8.4,90.7,0,90.7,0V424.8h-0.9c0-86.6,38.3-156.8,85.6-156.8s85.6,70.2,85.6,156.8
			c0,71.4-26.1,131.6-61.8,150.5c-0.6,5.6-1.9,11.8-4.6,18.2c47.4-15.1,83.3-84.8,83.3-168.7C1478.7,329.9,1432.8,253,1376.2,253z"
			/>
	</g>
	<g>
		<polygon fill="#EDEDEE" points="781.8,262.3 781.8,300.5 164.4,300.5 164.4,262.3 107.1,262.3 107.1,392.8 164.4,392.8 
			164.4,354.6 781.8,354.6 781.8,392.8 839.1,392.8 839.1,262.3 		"/>
		<path fill="#B4DFD3" d="M625.1,271.9H321.2c-14.5,0-26.3,11.8-26.3,26.3v338.1v49.3v57.3h17.5v-57.3h24.7v57.3h17.5v-57.3H388
			v57.3h17.5v-57.3h33.4v57.3h17.5v-57.3h33.4v57.3h17.5v-57.3h33.4v57.3h17.5v-57.3h33.4v57.3h17.5v-57.3h24.7v57.3h17.5v-57.3
			v-49.3V298.1C651.3,283.6,639.6,271.9,625.1,271.9z M312.4,509.7h321.4v20.7H312.4V509.7z M312.4,549.5h321.4v39.8H312.4V549.5z"
			/>
	</g>
	<g>
		<polygon fill="#FFFFFF" points="1804.2,236.6 1739.4,227.1 1713.9,272.4 1701.2,341.6 1713.9,361.9 1787.2,372.9 		"/>
		<polygon fill="#F6977F" points="1795.5,227.1 1845.6,235.4 1813.4,412 1755,451.4 1707.2,793.9 1651.1,787.9 1712,428.7 
			1772.9,383.4 		"/>
		<path fill="#F6977F" d="M1929.2,330.9c0,0,8.4-95.2,15.5-101.3c7.2-6.1,59.7-4.6,66.8,0c7.2,4.6,19.1,101.3,19.1,101.3H1929.2z"/>
		<path fill="#F79552" d="M2068.8,329.7c-9.5-10.7-88.9-7.2-88.9-7.2s-79.4-3.6-88.9,7.2c-9.5,10.7-72.3,467.1-66.8,471.7
			c10.7,9.2,302.3,6.8,311.5,0C2141.4,797.1,2078.4,340.4,2068.8,329.7z M2053.1,730.8c-4.3,4.8-141.3,6.5-146.4,0
			c-2.6-3.3,26.9-323.5,31.4-331c4.5-7.5,41.8-5,41.8-5s37.3-2.5,41.8,5C2026.2,407.3,2055.8,727.8,2053.1,730.8z"/>
		<path fill="#FEDCC6" d="M1753.8,227.1c0,11.9-17.9,19.1-16.7,31s13.1,22.7,11.3,33.4s-24.5,10.7-25.7,21.5
			c-1.2,10.7,19.1,25.1,15.5,35.8s-6,26.3-40.6,23.9c-34.6-2.4-22.7-40.3-16.7-72.7c6-32.3,3.6-70.5,16.7-87.2
			C1710.8,196,1753.8,206.8,1753.8,227.1z"/>
	</g>
	<g>
		<path fill="#FFDAA2" d="M1785.7,1531.1h203.7c0,0,25.5,137.6-100,137.6C1795.3,1668.7,1785.7,1596.4,1785.7,1531.1z"/>
		<path fill="#FDC578" d="M2054.6,1050.6c-15.9-11.1-335.7-9.5-340.5,0s71.6,480.5,71.6,480.5h203.7
			C1989.4,1531.1,2070.5,1061.7,2054.6,1050.6z M1935.3,1434.1h-97.8c0,0-36.7-283.7-34.4-289.5c2.3-5.8,155.8-6.7,163.5,0
			C1974.2,1151.3,1935.3,1434.1,1935.3,1434.1z"/>
		<path fill="#FDC578" d="M1799.7,1618.9h179.7c6.1-12.7,9.3-26.3,10.8-39h-201.6C1790.7,1593.8,1794.2,1607,1799.7,1618.9z"/>
	</g>
	<g>
		<path fill="#C2B9CE" d="M431,1131.9c0,0,4.8-99,0-106.2c-4.8-7.2-51.3,7.2-54.9,0c-3.6-7.2-6-37,0-43c6-6,121.7-1.2,130.1,0
			c8.4,1.2,59.7,46.5,59.7,51.3s-9.5,18.5-15.5,21.8s-39.4-25.4-44.2-27.8s-35.9-1.2-37,4.8s0,99,0,99H431z"/>
		<path fill="#E0D7EB" d="M390.5,1164.1c0,0-9.5-33.4,0-41.8c9.5-8.4,96.7-8.4,103.8,0c7.2,8.4,4.8,41.8,4.8,41.8H390.5z"/>
		<path fill="#E0D7EB" d="M377.3,1193.9c0,0-101.4,52.5-106.2,66.8c-4.8,14.3-4.8,341.3,0,353.2c4.8,11.9,25.1,37.7,34.6,44.5
			s248.2,8,262.5,5.6c14.3-2.4,40.6-19.1,53.7-34.6c13.1-15.5,7.2-358,0-368.8c-7.2-10.7-106.2-66.8-106.2-66.8H377.3z"/>
		<path fill="#C2B9CE" d="M347.5,1312.1c-5.2,4.6-7.2,256.6,0,272.1c7.2,15.5,189.7,20.3,198.1,11.9c8.4-8.4,14.3-280.4,7.2-284
			C545.6,1308.5,358.2,1302.5,347.5,1312.1z"/>
		<path fill="#C2B9CE" d="M360.6,1159.3c-7.7,3.8-1.2,44.2,0,53.7c1.2,9.5,167.1,3.6,173,0c6-3.6,11.9-47.7,0-53.7
			C521.7,1153.4,379.7,1149.8,360.6,1159.3z"/>
	</g>
	<g>
		<path fill="#BFE0F6" d="M1129.2,1070.3c-25.3,21.2-4.3,82.7,35.6,57.3C1204.7,1102.2,1165.2,1040.1,1129.2,1070.3z M1165.8,1102.3
			c-10.6,6.8-16.1-9.6-9.4-15.2C1165.9,1079,1176.3,1095.5,1165.8,1102.3z"/>
		<path fill="#BFE0F6" d="M1110.8,1173.8c-36.6,12.7-9.5,91.8,35,66.6C1190.3,1215.1,1147.4,1161,1110.8,1173.8z M1149,1219.2
			c-10.6,6.8-16.1-9.6-9.4-15.2C1149.1,1196,1159.6,1212.5,1149,1219.2z"/>
		<path fill="#BFE0F6" d="M994.6,1124.4c-26.4,24.2,0,93.9,50.9,62.1C1096.5,1154.7,1032.8,1089.4,994.6,1124.4z M1051.1,1162.4
			c-10.6,6.8-16.1-9.6-9.4-15.2C1051.2,1139.2,1061.7,1155.7,1051.1,1162.4z"/>
		<g>
			<path fill="#BFE0F6" d="M1424.2,1404.5c3.2-47.7,20.7-124.1-4.8-143.2c-25.5-19.1-174.3,1.1-233.6,4.3
				c-59.3,3.2-207.1-47.1-253.3-13.7c-24,17.4,0,109.6-3.2,163.7c-3.2,54.1-17.9,103.4-3.4,133.7c14.5,30.2,148.2-11.1,243.7,0
				c95.5,11.1,225.9,35,254.6,4.8C1452.9,1523.8,1421.1,1452.2,1424.2,1404.5z M1026.2,1389.5c4.1,2.4,8.4,4.6,12.7,6.7
				c5.4,3.2,11.1,6.4,15,11.5c8.5,11.4,12.2,26.5,6.4,40.1c-15.2,35.3-56.1,35.8-84.8,17.2c-10.3-6.7-0.7-23.2,9.6-16.5
				c15.1,9.8,46.2,18.7,56.1-4.3c11-25.7-10.6-27.8-24.6-38.3c-11.1-8.3-21.9-20.9-20-36.1c4-31.9,33.7-47.8,62.4-32.1
				c10.8,5.9,1.2,22.4-9.6,16.5C1026.1,1341.4,999.7,1374.8,1026.2,1389.5z M1128.1,1462.6c-73.5-4.4-58.9-133.7,14-125.1
				c0.4-0.1,0.8-0.3,1.3-0.3c30-1.9,51.1,34.8,46.7,61.8C1184.9,1431.5,1165.2,1464.8,1128.1,1462.6z M1259.1,1471.9
				c-1.9-15.8-3.9-31.6-6.1-47.3c-10-0.6-20-0.8-30-0.3c-6,14.3-12,28.6-17.9,42.9c-4.7,11.2-23.2,6.3-18.4-5.1
				c11.2-26.8,21.8-54.1,33.8-80.6c6.3-13.7,12.7-35.2,30.5-35c3,0,7,1.7,8.2,4.7c7.4,17.4,8.1,39,10.8,57.7
				c0.1,0.6,0.2,1.3,0.3,1.9c1.5,2.6,2,5.8,1.1,8.6c2.4,17.5,4.8,34.9,6.9,52.4C1279.6,1484.1,1260.5,1483.9,1259.1,1471.9z
				 M1332.1,1420.7c1.4,18.6,2.5,37.2,2.9,55.9c0.3,12.3-18.8,12.3-19.1,0c-0.9-40.7-4.1-81.1-9.9-121.3
				c-1.3-9.3,9.2-14.4,14.9-10.7c27.3-9.8,57.9,6.4,63.6,35.5C1389.6,1406.1,1353.6,1421.2,1332.1,1420.7z"/>
			<path fill="#BFE0F6" d="M1230.3,1405c6.7-0.1,13.5-0.1,20.2,0.3c-1.2-11.4-2.1-24-4.8-35.1
				C1240.6,1377.8,1234.5,1393.4,1230.3,1405z"/>
			<path fill="#BFE0F6" d="M1147.4,1356.3c-1.5,0.5-3.1,0.7-5,0.3c-55.4-11.3-59,92.2-8.7,87.2c22.6-2.3,33.8-24.2,37-44.4
				C1173.2,1384.6,1165.8,1358.6,1147.4,1356.3z"/>
			<path fill="#BFE0F6" d="M1326,1363c1.7,12.8,3.2,25.7,4.4,38.5c11.7,0.6,40.8-6.2,34-22.8C1357.9,1362.7,1341.4,1357.7,1326,1363
				z"/>
		</g>
	</g>
</g>
</svg>
