<?xml version="1.0" encoding="utf-8"?>
<!-- Svg Vector Icons : http://www.onlinewebfonts.com/icon -->
<!DOCTYPE svg PUBLIC "-//W3C//DTD SVG 1.1//EN" "http://www.w3.org/Graphics/SVG/1.1/DTD/svg11.dtd">
<svg version="1.1" xmlns="http://www.w3.org/2000/svg" xmlns:xlink="http://www.w3.org/1999/xlink" x="0px" y="0px" viewBox="0 0 1000 1000" enable-background="new 0 0 1000 1000" xml:space="preserve" fill="#2980b9">
<metadata> Svg Vector Icons : http://www.onlinewebfonts.com/icon </metadata>
<g><g transform="translate(0.000000,511.000000) scale(0.100000,-0.100000)"><path d="M4795.1,3964.5c-61.3-16.9-152.1-50.7-198.5-76c-111.9-57-276.7-219.7-333.7-331.6c-111.9-219.7-107.7-86.6-107.7-3457.5c0-2540.8,6.3-3144.9,29.6-3231.5c84.5-318.9,327.4-553.4,642.1-621c156.3-33.8,2536.6-31.7,2610.5,0c111.9,52.8,120.4,232.3,10.6,287.2c-38,21.1-287.2,27.5-994.8,27.5h-946.2v169v169h939.9c652.6,0,954.7,6.3,990.6,23.2c116.2,54.9,116.2,236.5,0,291.5c-35.9,16.9-337.9,23.3-990.6,23.3h-939.9v169v169h939.9c652.6,0,954.7,6.3,990.6,23.2c65.5,29.6,103.5,120.4,84.5,196.4c-27.5,116.2-46.5,118.3-1075,118.3h-939.9v169v169h939.9c652.6,0,954.7,6.3,990.6,23.2c76,35.9,109.8,128.8,76,211.2c-14.8,35.9-50.7,73.9-78.1,84.5c-27.5,10.6-473.1,19-990.5,19h-937.8v169v169h939.9c652.6,0,954.7,6.3,990.6,23.2c27.5,14.8,63.4,52.8,78.1,84.5c31.7,78.1-4.2,173.2-78.1,207c-35.9,16.9-337.9,23.3-990.6,23.3h-939.9v169v169h939.9c652.6,0,954.7,6.3,990.6,23.2c111.9,52.8,120.4,232.3,10.6,287.3c-38,21.1-287.2,27.5-994.8,27.5h-946.2v169v169h939.9c652.6,0,954.7,6.3,990.6,23.2c116.2,54.9,116.2,236.5,0,291.5c-35.9,16.9-337.9,23.2-990.6,23.2h-939.9v169v169h939.9c652.6,0,954.7,6.3,990.6,23.2c116.2,54.9,116.2,236.5,0,291.5c-35.9,16.9-337.9,23.2-990.6,23.2h-939.9v169v169h939.9c652.6,0,954.7,6.3,990.6,23.2c76,35.9,109.8,128.8,76,211.2c-14.8,35.9-50.7,73.9-78.1,84.5c-27.5,10.6-473.1,19-990.5,19h-937.8v169v169h939.9c652.6,0,954.7,6.3,990.6,23.2c116.2,54.9,116.2,236.5,0,291.5c-35.9,16.9-337.9,23.2-990.6,23.2h-939.9v169v169h939.9c652.6,0,954.7,6.3,990.6,23.2c76,35.9,109.8,128.8,76,211.2c-14.8,35.9-50.7,73.9-78.1,84.5c-27.5,10.6-473.1,19-990.5,19h-937.8v169v169h939.9c652.6,0,954.7,6.3,990.6,23.2c116.2,54.9,116.2,236.5,0,291.5C7352.9,4011,4938.7,4002.5,4795.1,3964.5z M5169,107.8v-3552.5l-162.6,10.6c-179.5,10.6-261.9,44.4-363.3,145.7c-152.1,150-139.4-147.9-145.7,3324.4c-4.2,1719.2,0,3166,6.3,3214.6c6.3,48.6,38,124.6,69.7,171.1c111.9,166.9,247.1,234.4,464.6,236.6h131V107.8z"/><path d="M1325,2625.4c-147.8-46.5-255.6-137.3-329.5-276.7c-35.9-67.6-40.1-137.3-46.5-730.8l-6.3-656.9L816,937.9c-261.9-48.6-502.7-215.4-608.3-422.4C100,304.3,100,297.9,100-1404.4c0-1096.2,6.3-1622.1,23.2-1700.2c69.7-323.1,325.3-578.7,648.4-648.4c154.2-31.7,1881.9-31.7,2036,0c323.1,69.7,578.7,325.3,648.4,648.4c16.9,78.2,23.2,604,23.2,1700.2c0,1343.3-4.2,1609.4-31.7,1710.8c-88.7,342.2-331.6,566-684.3,631.5l-126.7,23.2l-6.3,656.9c-6.3,627.3-8.4,661.1-52.8,741.3c-52.8,99.3-135.2,179.5-238.7,234.4c-65.5,35.9-131,40.1-517.5,44.4C1576.3,2640.2,1354.6,2633.9,1325,2625.4z M2243.7,2253.7l52.8-50.7v-625.2V954.8h-506.9h-506.9v623.1V2203l52.8,50.7c50.7,52.8,54.9,52.8,454.1,52.8C2188.8,2306.5,2193.1,2306.5,2243.7,2253.7z M2792.9,593.6c114-31.7,293.6-211.2,325.3-325.3c31.7-118.3,31.7-3239.9,0-3358.2c-31.7-118.3-211.2-293.6-329.5-325.3c-63.4-16.9-378.1-23.2-1045.5-19c-1056,6.3-1011.7,2.1-1155.3,145.7C440-3140.5,448.5-3263,442.2-1484.7c-4.2,882.9,0,1645.3,6.3,1693.9c23.2,156.3,162.6,321,325.3,378.1C875.1,623.2,2664,629.5,2792.9,593.6z"/><path d="M8432.1,576.7c-128.8-80.3-221.8-238.7-221.8-380.2c0-73.9,120.4-511.1,147.9-538.6c29.6-29.6,29.6-2445.8,0-2475.4c-27.5-27.5-147.9-464.6-147.9-538.6c0-105.6,65.5-249.2,150-323.2c139.4-126.7,236.6-126.7,376,0c84.5,73.9,150,217.6,150,323.2c0,73.9-120.4,511.1-147.9,538.6c-29.6,29.6-29.6,2445.8,0,2475.4c27.5,27.5,147.9,464.7,147.9,538.6c0,88.7-59.1,234.4-122.5,299.9C8647.5,619,8541.9,644.3,8432.1,576.7z"/><path d="M9445.9,576.7c-128.8-80.3-221.8-238.7-221.8-380.2c0-73.9,120.4-511.1,147.8-538.6c29.6-29.6,29.6-2445.8,0-2475.4c-27.5-27.5-147.8-464.6-147.8-538.6c0-105.6,65.5-249.2,149.9-323.2c139.4-126.7,236.6-126.7,376,0c84.5,73.9,150,217.6,150,323.2c0,73.9-120.4,511.1-147.8,538.6c-29.6,29.6-29.6,2445.8,0,2475.4c27.5,27.5,147.8,464.7,147.8,538.6c0,88.7-59.1,234.4-122.5,299.9C9661.3,619,9555.7,644.3,9445.9,576.7z"/></g></g>
</svg>